<?xml version="1.0" encoding="UTF-8" standalone="no"?>
<!-- Created with Inkscape (http://www.inkscape.org/) -->

<svg
   width="89.999931mm"
   height="69.361656mm"
   viewBox="0 0 89.999931 69.361656"
   version="1.1"
   id="svg1"
   xml:space="preserve"
   xmlns:inkscape="http://www.inkscape.org/namespaces/inkscape"
   xmlns:sodipodi="http://sodipodi.sourceforge.net/DTD/sodipodi-0.dtd"
   xmlns="http://www.w3.org/2000/svg"
   xmlns:svg="http://www.w3.org/2000/svg"><sodipodi:namedview
     id="namedview1"
     pagecolor="#ffffff"
     bordercolor="#000000"
     borderopacity="0.25"
     inkscape:showpageshadow="2"
     inkscape:pageopacity="0.0"
     inkscape:pagecheckerboard="0"
     inkscape:deskcolor="#d1d1d1"
     inkscape:document-units="mm"
     inkscape:zoom="0.17594346"
     inkscape:cx="10702.302"
     inkscape:cy="22728.892"
     inkscape:window-width="1920"
     inkscape:window-height="1018"
     inkscape:window-x="0"
     inkscape:window-y="0"
     inkscape:window-maximized="1"
     inkscape:current-layer="layer1"><inkscape:page
       x="0"
       y="0"
       width="89.999931"
       height="69.361656"
       id="page2"
       margin="0"
       bleed="0" /></sodipodi:namedview><defs
     id="defs1"><style
       id="style1-0">.cls-1{fill:#deaa26;}.cls-2{fill:#fff;}.cls-3{fill:none;}</style></defs><g
     inkscape:label="Layer 1"
     inkscape:groupmode="layer"
     id="layer1"
     transform="translate(-3270.6243,-6193.9635)"><g
       id="g4225"
       transform="matrix(-0.39075897,0.13088699,0.13088699,0.39075897,3254.8058,5563.1481)"
       style="opacity:1;fill:#e0661f;fill-opacity:1"
       inkscape:export-filename="orree-muscot.svg"
       inkscape:export-xdpi="96"
       inkscape:export-ydpi="96"><path
         d="m 431.59176,1576.2206 c -13.67172,0.1377 -26.33892,10.4051 -28.85351,24.5039 -0.48959,2.745 -0.74111,8.7172 -0.75391,17.9512 -0.0225,16.5735 -0.34559,17.9751 -5.33984,23.0781 -4.06173,4.1504 -5.2142,4.4215 -18.89648,4.4355 -20.63835,0.022 -36.65785,-3.5745 -54.62695,-12.2636 -19.63101,-9.4928 -35.56034,-23.4397 -47.82031,-41.8653 -3.91926,-5.8904 -6.20022,-6.974 -9.91211,-4.7109 -2.06798,1.2608 -3.00976,3.3523 -2.56836,5.7051 0.38402,2.0471 6.57975,11.2 11.80078,17.4336 19.13637,22.8478 45.15424,38.3952 74.60351,44.58 4.37378,0.9186 8.5906,1.5438 16.41406,2.4356 3.7141,0.4234 20.29429,0.2878 25.02539,-0.2051 11.09457,-1.1558 20.57814,-3.2139 31.21484,-6.7715 7.03263,-2.3521 21.28858,-9.2344 27.7168,-13.3808 14.44233,-9.3159 26.83053,-21.1339 36.68164,-34.9981 4.71673,-6.6381 5.73675,-8.6983 5.38476,-10.8672 -0.63972,-3.9422 -4.75115,-6.0958 -8.11133,-4.248 -0.98732,0.5429 -3.08418,3.0342 -5.16015,6.1308 -3.85388,5.7489 -9.71797,12.9122 -13.94727,17.0371 l -2.73828,2.67 v -5.2012 c 0,-6.5297 -0.68453,-9.8599 -3.05469,-14.8535 -3.78942,-7.9837 -11.81716,-14.0592 -21.16406,-16.0176 -1.96736,-0.4122 -3.94142,-0.5978 -5.89453,-0.5781 z m 0.89453,11.748 c 8.21596,0.1379 14.97572,5.4473 17.08789,13.6192 1.6327,6.3169 0.79013,18.5162 -1.51367,21.9121 -1.01409,1.4949 -7.9613,6.3652 -9.08008,6.3652 -0.22946,0 -0.41796,-6.1607 -0.41796,-13.6894 0,-7.5288 -0.22604,-14.2867 -0.50391,-15.0176 -1.84603,-4.8557 -8.56235,-4.8762 -10.58594,-0.033 -0.5781,1.3837 -0.74895,5.105 -0.75195,16.209 -0.003,13.9282 -0.30091,17.1935 -1.74219,19.1503 -0.37274,0.506 -3.09856,1.746 -6.05859,2.754 -6.28222,2.1392 -7.80588,2.601 -7.79688,2.3671 0.004,-0.094 0.53369,-1.7438 1.17774,-3.6679 1.06901,-3.1934 1.1969,-4.9509 1.47266,-20.1817 0.29564,-16.3297 0.33061,-16.7412 1.625,-19.375 2.95973,-6.0224 8.76376,-9.9252 15.42578,-10.3711 0.55972,-0.037 1.11437,-0.05 1.6621,-0.041 z"
         style="fill:#e0661f;fill-opacity:1;stroke-width:0.538187"
         id="path4224" /><path
         d="m 439.59372,1510.7811 c -2.99877,-0.04 -5.98282,0.1744 -8.02735,0.6563 -13.88889,3.273 -25.21036,15.2274 -28.61132,30.2109 -1.30267,5.7392 -1.12018,7.4566 0.99609,9.418 2.43469,2.2563 7.21758,1.5234 8.75,-1.3399 0.28516,-0.533 0.87974,-2.6976 1.32031,-4.8105 1.1495,-5.5131 3.63913,-10.3276 7.44531,-14.3965 3.73124,-3.9887 6.5643,-5.8229 11.24414,-7.2793 8.59173,-2.6742 18.00638,0.1201 24.55664,7.2871 3.50189,3.8316 5.81942,8.3914 7.16406,14.0957 1.23023,5.219 2.79705,7.5482 5.28516,7.8614 2.002,0.2519 4.03767,-0.5053 5.48047,-2.0411 1.59447,-1.6971 1.59995,-4.8811 0.0215,-10.6347 -3.79874,-13.8465 -14.5531,-24.8552 -27.50585,-28.1563 -2.106,-0.5367 -5.12038,-0.8314 -8.11914,-0.8711 z"
         style="fill:#e0661f;fill-opacity:1;stroke-width:0.538187"
         id="path4223" /><path
         d="m 312.94919,1510.7011 c -3.3376,0.22 -6.68481,0.9369 -9.96289,2.1699 -12.37972,4.6566 -22.56134,17.5386 -24.74413,31.3066 -0.56147,3.5416 0.13179,5.8927 2.15625,7.3106 1.921,1.3457 5.42063,1.1377 7.10351,-0.4219 0.77126,-0.7149 1.5191,-1.8654 1.66211,-2.5567 1.24125,-5.9992 1.73935,-7.6484 3.31055,-10.9453 3.26743,-6.8564 8.88371,-11.9064 15.87695,-14.2793 2.85637,-0.969 4.2879,-1.1315 8.10742,-0.9199 7.49733,0.4152 14.05099,4.065 18.44726,10.2754 3.30562,4.6696 4.02378,6.2642 5.46875,12.127 1.53375,6.2229 2.70793,7.5976 6.48242,7.5976 1.83681,0 2.7273,-0.3113 3.71485,-1.2988 1.89937,-1.8994 2.17877,-3.8173 1.22656,-8.4297 -1.74101,-8.4332 -5.20207,-14.9146 -11.20703,-20.9883 -7.70439,-7.7925 -17.62975,-11.6074 -27.64258,-10.9472 z"
         style="fill:#e0661f;fill-opacity:1;stroke-width:0.538187"
         id="path4222" /></g></g><style
     type="text/css"
     id="style1">
	.st0{fill:#010101;}
</style><style
     id="style1-2">
		tspan { white-space:pre }
		.shp0 { fill: #353c40 } 
		.shp1 { fill: #dd2a19 } 
		.shp2 { fill: #2062a6 } 
		.shp3 { fill: #8c63a6 } 
	</style><style
     id="style1-4">
		tspan { white-space:pre }
		.shp0 { fill: #353c40 } 
		.shp1 { fill: #dd2a19 } 
		.shp2 { fill: #2062a6 } 
		.shp3 { fill: #8c63a6 } 
	</style></svg>
