<?xml version="1.0" encoding="UTF-8" standalone="no"?>
<!-- Created with Inkscape (http://www.inkscape.org/) -->

<svg
   width="529.16663mm"
   height="113.10938mm"
   viewBox="0 0 529.16663 113.10938"
   version="1.1"
   id="svg1"
   xml:space="preserve"
   xmlns:inkscape="http://www.inkscape.org/namespaces/inkscape"
   xmlns:sodipodi="http://sodipodi.sourceforge.net/DTD/sodipodi-0.dtd"
   xmlns="http://www.w3.org/2000/svg"
   xmlns:svg="http://www.w3.org/2000/svg"><sodipodi:namedview
     id="namedview1"
     pagecolor="#ffffff"
     bordercolor="#000000"
     borderopacity="0.25"
     inkscape:showpageshadow="2"
     inkscape:pageopacity="0.0"
     inkscape:pagecheckerboard="0"
     inkscape:deskcolor="#d1d1d1"
     inkscape:document-units="mm"
     inkscape:zoom="0.17594346"
     inkscape:cx="10702.302"
     inkscape:cy="22728.892"
     inkscape:window-width="1920"
     inkscape:window-height="1018"
     inkscape:window-x="0"
     inkscape:window-y="0"
     inkscape:window-maximized="1"
     inkscape:current-layer="layer1"><inkscape:page
       x="0"
       y="0"
       width="529.16663"
       height="113.10938"
       id="page2"
       margin="0"
       bleed="0" /></sodipodi:namedview><defs
     id="defs1"><style
       id="style1-0">.cls-1{fill:#deaa26;}.cls-2{fill:#fff;}.cls-3{fill:none;}</style></defs><g
     inkscape:label="Layer 1"
     inkscape:groupmode="layer"
     id="layer1"
     transform="translate(-3054.564,-6310.6471)"><g
       id="g6825"
       style="fill:#e0661f;fill-opacity:1"
       transform="matrix(0.26458335,0,0,0.26458335,3296.5119,6328.719)"
       inkscape:export-filename="orree-logo.svg"
       inkscape:export-xdpi="96"
       inkscape:export-ydpi="96"><g
         id="g6824"
         style="fill:#e0661f;fill-opacity:1"><g
           id="g6823"
           style="fill:#e0661f;fill-opacity:1"><g
             id="g6817"
             transform="matrix(1.4244807,0,0,1.4244807,646.85381,-45578.402)"
             style="fill:#e0661f;fill-opacity:1"><g
               id="g6816"
               style="fill:#e0661f;fill-opacity:1"><g
                 id="g6815"
                 style="fill:#e0661f;fill-opacity:1"><g
                   id="g6814"
                   style="fill:#e0661f;fill-opacity:1"><g
                     id="g6813"
                     transform="matrix(3.9697007,0,0,3.9697007,-6976.144,33458.932)"
                     style="fill:#e0661f;fill-opacity:1"><g
                       id="g6812"
                       transform="matrix(1.1200026,0,0,1.05,1204.2347,-921.46926)"
                       style="fill:#e0661f;fill-opacity:1"><g
                         id="g6811"
                         transform="matrix(0.56455793,0,0,0.56455793,241.33103,508.92287)"
                         style="fill:#e0661f;fill-opacity:1"><path
                           d="m 84.4,46.6 c -8.3,14.4 -19.1,35 -20,52 -0.3,5.3 -0.1,11 1.2,16.1 2.9,10.9 10.9,13.7 19.6,6.4 C 104.3,105.3 118.3,58.8 110.4,35 106.2,22.2 98,17.6 85.4,22 60.7,30.8 41.7,55 37.7,76 29.2,120.2 56.9,134.9 58.5,137.1 40.1,131.8 19.5,114.7 13,92.1 6,67.8 14.8,40.8 35,25.4 56.7,8.9 80.4,6.6 104.3,19.3 c 22.9,12.2 34,32.4 32.4,58.5 -1.6,26.4 -18.1,50 -38.6,58.3 -19.5,7.9 -39,-2.5 -40.3,-26.5 -1.2,-22.7 12.9,-46.3 26.6,-63 z"
                           fill="#463025"
                           id="path6811"
                           style="fill:#e0661f;fill-opacity:1" /></g><path
                         d="m 360.53318,520.07223 c -5.84841,0 -10.74769,1.06276 -14.69727,3.18945 -2.88557,1.58424 -5.20164,3.7164 -6.94922,6.39649 v -8.90235 H 325.3281 v 60.83789 h 14.24219 V 552.0859 c 0,-6.22818 1.59511,-10.89959 4.78515,-14.01367 3.19004,-3.19004 7.48036,-4.78516 12.87305,-4.78516 0.53167,0 1.06403,0.0373 1.5957,0.11328 0.53168,0 1.10136,0.0766 1.70899,0.22852 z m 47.25585,0 c -5.8484,0 -10.74769,1.06276 -14.69726,3.18945 -2.8857,1.58431 -5.20161,3.71818 -6.94922,6.39844 v -8.9043 h -13.55859 v 60.83789 h 14.24218 V 552.0859 c 0,-6.22818 1.59512,-10.89959 4.78516,-14.01367 3.19004,-3.19004 7.48036,-4.78516 12.87305,-4.78516 0.53167,0 1.06403,0.0373 1.5957,0.11328 0.53167,0 1.10136,0.0766 1.70898,0.22852 z m 37.91406,0 c -6.07626,0 -11.5079,1.32796 -16.29296,3.98633 -4.70911,2.65836 -8.42975,6.34167 -11.16407,11.05078 -2.65836,4.63315 -3.98828,9.98818 -3.98828,16.06445 0,6.00031 1.36725,11.35534 4.10157,16.06445 2.81027,4.70911 6.72145,8.4317 11.73437,11.16602 5.08887,2.65836 11.01359,3.98632 17.77344,3.98632 5.31673,0 10.02547,-0.83488 14.12695,-2.50586 4.17743,-1.74692 7.63286,-4.21621 10.36718,-7.40625 l -7.63281,-8.77148 c -2.12669,2.2786 -4.55669,3.94837 -7.29101,5.01172 -2.73432,1.06335 -5.81062,1.5957 -9.22852,1.5957 -3.94957,0 -7.44429,-0.76023 -10.48242,-2.27929 -3.03813,-1.51907 -5.39152,-3.68387 -7.0625,-6.49414 -1.05298,-1.77093 -1.77463,-3.70785 -2.16406,-5.81055 h 47.73632 c 0.076,-0.68358 0.11329,-1.40453 0.11329,-2.16406 0.0759,-0.75954 0.11328,-1.44316 0.11328,-2.05078 0,-6.38008 -1.32796,-11.92371 -3.98633,-16.63282 -2.65837,-4.7091 -6.30435,-8.35508 -10.9375,-10.93749 -4.63315,-2.58242 -9.91158,-3.87305 -15.83594,-3.87305 z m 70.86328,0 c -6.07627,0 -11.50596,1.32796 -16.29102,3.98633 -4.7091,2.65836 -8.43169,6.34167 -11.16601,11.05078 -2.65837,4.63315 -3.98633,9.98818 -3.98633,16.06445 0,6.00031 1.36529,11.35534 4.09961,16.06445 2.81027,4.70911 6.72341,8.4317 11.73633,11.16602 5.08887,2.65836 11.01359,3.98632 17.77343,3.98632 5.31674,0 10.02548,-0.83488 14.12696,-2.50586 4.17743,-1.74692 7.63286,-4.21621 10.36718,-7.40625 l -7.63281,-8.77148 c -2.12669,2.2786 -4.55865,3.94837 -7.29297,5.01172 -2.73432,1.06335 -5.81061,1.5957 -9.22851,1.5957 -3.94957,0 -7.44234,-0.76023 -10.48047,-2.27929 -3.03813,-1.51907 -5.39348,-3.68387 -7.06445,-6.49414 -1.05298,-1.77093 -1.77268,-3.70785 -2.16211,-5.81055 h 47.73437 c 0.076,-0.68358 0.11523,-1.40453 0.11523,-2.16406 0.076,-0.75954 0.11329,-1.44316 0.11329,-2.05078 0,-6.38008 -1.32992,-11.92371 -3.98829,-16.63282 -2.65836,-4.7091 -6.30434,-8.35508 -10.93749,-10.93749 -4.63316,-2.58242 -9.91158,-3.87305 -15.83594,-3.87305 z m -70.86328,11.39258 c 3.4179,0 6.41759,0.75827 9,2.27734 2.65837,1.51907 4.74656,3.60921 6.26563,6.26758 1.07418,1.87982 1.75073,3.96802 2.02734,6.26562 h -34.62304 c 0.31169,-2.28201 0.9615,-4.33287 1.94921,-6.15234 1.51907,-2.73432 3.56993,-4.86179 6.15235,-6.38086 2.65836,-1.51907 5.73466,-2.27734 9.22851,-2.27734 z m 70.86328,0 c 3.4179,0 6.41759,0.75827 9,2.27734 2.65837,1.51907 4.74851,3.60921 6.26758,6.26758 1.07418,1.87982 1.74878,3.96802 2.02539,6.26562 h -34.62305 c 0.31169,-2.28201 0.96151,-4.33287 1.94922,-6.15234 1.51907,-2.73432 3.56993,-4.86179 6.15234,-6.38086 2.65837,-1.51907 5.73467,-2.27734 9.22852,-2.27734 z"
                         style="font-weight:600;font-size:113.93px;font-family:Montserrat;-inkscape-font-specification:'Montserrat Semi-Bold';fill:#e0661f;fill-opacity:1;stroke:#a10000;stroke-width:0"
                         id="path6812" /></g></g></g></g></g></g><g
             id="g6822"
             style="fill:#e0661f;fill-opacity:1"
             transform="translate(-4414.3286,-1874.5748)"><g
               id="g6821"
               transform="matrix(12.820512,0,0,12.820512,3384.6237,1652.9376)"
               style="fill:#e0661f;fill-opacity:1"><g
                 id="g6820"
                 style="fill:#e0661f;fill-opacity:1"><path
                   id="path6819"
                   class="shp0"
                   d="m 159.59,12.54 v -0.58 h -3.96 v 0.58 h 1.62 v 4.01 h 0.73 v -4.01 z m 5.4,-0.58 h -1.15 l -1.22,3.94 -1.22,-3.94 h -1.19 v 4.59 h 0.74 V 14.3 c 0,-0.53 0,-1.15 -0.02,-1.64 0.13,0.49 0.32,1.11 0.49,1.62 l 0.75,2.27 h 0.85 l 0.75,-2.26 c 0.17,-0.52 0.37,-1.15 0.5,-1.63 -0.01,0.48 -0.01,1.11 -0.01,1.64 v 2.25 h 0.73 z"
                   style="fill:#e0661f;fill-opacity:1" /></g></g></g></g></g></g></g><style
     type="text/css"
     id="style1">
	.st0{fill:#010101;}
</style><style
     id="style1-2">
		tspan { white-space:pre }
		.shp0 { fill: #353c40 } 
		.shp1 { fill: #dd2a19 } 
		.shp2 { fill: #2062a6 } 
		.shp3 { fill: #8c63a6 } 
	</style><style
     id="style1-4">
		tspan { white-space:pre }
		.shp0 { fill: #353c40 } 
		.shp1 { fill: #dd2a19 } 
		.shp2 { fill: #2062a6 } 
		.shp3 { fill: #8c63a6 } 
	</style></svg>
